<svg width="340" height="370" viewBox="0 0 340 370" fill="none" xmlns="http://www.w3.org/2000/svg">
<path d="M167.779 36.5706L201.708 13.1867C213.223 5.25 226.879 1 240.864 1H288.295C295.503 1 302.631 2.52192 309.21 5.4662C353.119 25.1146 348.158 88.985 301.741 101.617L285.405 106.062C259.199 113.194 241.608 137.754 243.292 164.861L249.691 267.855C251.643 299.262 232.097 328.011 202.173 337.748L117.052 365.444C90.0657 374.225 60.4552 365.587 42.4229 343.673L16.5487 312.23C-17.115 271.321 5.97413 209.307 58.1949 200.374L87.6714 195.332C127.182 188.574 152.106 149.044 141.173 110.48C133.294 82.6875 143.994 52.9639 167.779 36.5706Z" stroke="white" stroke-opacity="0.8" style="mix-blend-mode:soft-light"/>
</svg>
