<svg width="1em" height="1em" viewBox="0 0 82 81" fill="none" xmlns="http://www.w3.org/2000/svg">
<path d="M75.9829 20.9418C72.5144 14.6471 67.4055 9.40968 61.1989 5.78601C54.9923 2.16234 47.9199 0.28783 40.7333 0.361672C33.5466 0.435513 26.5143 2.45494 20.3834 6.20538C14.2526 9.95581 9.25234 15.2971 5.91399 21.6618L16.9436 27.4469C19.2367 23.075 22.6714 19.406 26.8828 16.8298C31.0941 14.2536 35.9247 12.8664 40.8612 12.8157C45.7978 12.765 50.6559 14.0526 54.9192 16.5418C59.1826 19.0309 62.692 22.6285 65.0745 26.9524L75.9829 20.9418Z" fill="#2196F3"/>
<circle cx="41.1419" cy="40.139" r="21.3121" transform="rotate(-28.8551 41.1419 40.139)" stroke="#2196F3" stroke-width="2.58385" stroke-linecap="round" stroke-dasharray="9.59 9.59"/>
<path d="M2.93106 29.0782C1.5089 33.9909 1.04744 39.1318 1.57195 44.2193L13.961 42.942C13.6007 39.4474 13.9177 35.916 14.8946 32.5414L2.93106 29.0782Z" fill="#2196F3"/>
<path d="M80.7889 43.3904C81.2069 38.293 80.638 33.1629 79.1133 28.281L67.2249 31.9938C68.2722 35.3473 68.663 38.8712 68.3759 42.3726L80.7889 43.3904Z" fill="#2196F3"/>
<path d="M2.91061 51.1299C5.31447 59.4914 10.3932 66.8343 17.3689 72.0336C24.3446 77.233 32.8324 80.0021 41.5322 79.9167C50.232 79.8313 58.6638 76.8962 65.5361 71.561C72.4084 66.2258 77.3421 58.7846 79.5814 50.3776L67.5463 47.1719C66.0081 52.9468 62.6191 58.0582 57.8985 61.723C53.1779 65.3878 47.3859 67.4039 41.41 67.4626C35.434 67.5212 29.6037 65.6191 24.812 62.0476C20.0204 58.4762 16.5317 53.4323 14.8805 47.6887L2.91061 51.1299Z" fill="#2196F3"/>
</svg>
