<svg width="1em" height="1em" viewBox="0 0 58 58" fill="none" xmlns="http://www.w3.org/2000/svg">
<path d="M53.1667 15.249H29C28.0092 15.249 27.1875 14.4274 27.1875 13.4365C27.1875 12.4457 28.0092 11.624 29 11.624H53.1667C54.1575 11.624 54.9792 12.4457 54.9792 13.4365C54.9792 14.4515 54.1575 15.249 53.1667 15.249Z" fill="currentColor"/>
<path d="M47.8012 27.1872H34.3887C29.0962 27.1872 27.2112 25.3263 27.2112 20.058V10.1497C27.2112 4.88134 29.0962 3.02051 34.3887 3.02051H47.8012C53.0937 3.02051 54.9787 4.88134 54.9787 10.1497V20.0822C54.9787 25.3263 53.0937 27.1872 47.8012 27.1872ZM34.3645 6.64551C31.0778 6.64551 30.812 6.91134 30.812 10.1497V20.0822C30.812 23.3205 31.0778 23.5863 34.3645 23.5863H47.777C51.0636 23.5863 51.3295 23.3205 51.3295 20.0822V10.1497C51.3295 6.91134 51.0636 6.64551 47.777 6.64551H34.3645Z" fill="currentColor"/>
<path d="M28.9999 43.041H4.83325C3.84242 43.041 3.02075 42.2193 3.02075 41.2285C3.02075 40.2377 3.84242 39.416 4.83325 39.416H28.9999C29.9907 39.416 30.8124 40.2377 30.8124 41.2285C30.8124 42.2435 29.9907 43.041 28.9999 43.041Z" fill="currentColor"/>
<path d="M23.6344 54.9792H10.2219C4.92944 54.9792 3.04443 53.1183 3.04443 47.85V37.9417C3.04443 32.6733 4.92944 30.8125 10.2219 30.8125H23.6344C28.9269 30.8125 30.8119 32.6733 30.8119 37.9417V47.8742C30.8119 53.1183 28.9269 54.9792 23.6344 54.9792ZM10.1977 34.4375C6.91108 34.4375 6.64524 34.7033 6.64524 37.9417V47.8742C6.64524 51.1125 6.91108 51.3783 10.1977 51.3783H23.6102C26.8969 51.3783 27.1627 51.1125 27.1627 47.8742V37.9417C27.1627 34.7033 26.8969 34.4375 23.6102 34.4375H10.1977Z" fill="currentColor"/>
<path d="M36.2506 54.9789C35.5981 54.9789 34.9939 54.6164 34.6797 54.0606C34.3656 53.4806 34.3655 52.8039 34.7039 52.2239L37.2414 47.9947C37.7489 47.1489 38.8606 46.8589 39.7306 47.3664C40.6006 47.8739 40.8664 48.9856 40.3589 49.8556L39.7064 50.9431C46.3764 49.3723 51.3789 43.3789 51.3789 36.2256C51.3789 35.2348 52.2006 34.4131 53.1914 34.4131C54.1822 34.4131 55.0039 35.2348 55.0039 36.2256C54.9797 46.5689 46.5697 54.9789 36.2506 54.9789Z" fill="currentColor"/>
<path d="M4.83325 23.5622C3.84242 23.5622 3.02075 22.7405 3.02075 21.7497C3.02075 11.4305 11.4308 3.02051 21.7499 3.02051C22.4024 3.02051 23.0066 3.38301 23.3207 3.93884C23.6349 4.51884 23.635 5.19551 23.2966 5.77551L20.7591 10.0047C20.2516 10.8505 19.1399 11.1405 18.2699 10.633C17.3999 10.1255 17.1341 9.01384 17.6416 8.14384L18.2941 7.05634C11.6241 8.62717 6.62156 14.6205 6.62156 21.7738C6.64573 22.7405 5.82408 23.5622 4.83325 23.5622Z" fill="currentColor"/>
</svg>
