<svg width="1em" height="1em" viewBox="0 0 25 24" fill="none" xmlns="http://www.w3.org/2000/svg">
<path d="M21.5 22H3.5C3.09 22 2.75 21.66 2.75 21.25C2.75 20.84 3.09 20.5 3.5 20.5H21.5C21.91 20.5 22.25 20.84 22.25 21.25C22.25 21.66 21.91 22 21.5 22Z" fill="currentColor"/>
<path d="M19.5201 3.48016C17.5801 1.54016 15.6801 1.49016 13.6901 3.48016L12.4801 4.69016C12.3801 4.79016 12.3401 4.95016 12.3801 5.09016C13.1401 7.74016 15.2601 9.86016 17.9101 10.6202C17.9501 10.6302 17.9901 10.6402 18.0301 10.6402C18.1401 10.6402 18.2401 10.6002 18.3201 10.5202L19.5201 9.31016C20.5101 8.33016 20.9901 7.38016 20.9901 6.42016C21.0001 5.43016 20.5201 4.47016 19.5201 3.48016Z" fill="currentColor"/>
<path d="M16.1098 11.5298C15.8198 11.3898 15.5398 11.2498 15.2698 11.0898C15.0498 10.9598 14.8398 10.8198 14.6298 10.6698C14.4598 10.5598 14.2598 10.3998 14.0698 10.2398C14.0498 10.2298 13.9798 10.1698 13.8998 10.0898C13.5698 9.8098 13.1998 9.4498 12.8698 9.0498C12.8398 9.0298 12.7898 8.9598 12.7198 8.8698C12.6198 8.7498 12.4498 8.5498 12.2998 8.3198C12.1798 8.1698 12.0398 7.9498 11.9098 7.7298C11.7498 7.4598 11.6098 7.1898 11.4698 6.9098C11.4486 6.86441 11.4281 6.81924 11.4083 6.77434C11.2607 6.44102 10.8261 6.34358 10.5683 6.60133L4.83983 12.3298C4.70983 12.4598 4.58983 12.7098 4.55983 12.8798L4.01983 16.7098C3.91983 17.3898 4.10983 18.0298 4.52983 18.4598C4.88983 18.8098 5.38983 18.9998 5.92983 18.9998C6.04983 18.9998 6.16983 18.9898 6.28983 18.9698L10.1298 18.4298C10.3098 18.3998 10.5598 18.2798 10.6798 18.1498L16.4011 12.4285C16.6607 12.1689 16.5628 11.7235 16.2252 11.5794C16.1872 11.5632 16.1488 11.5467 16.1098 11.5298Z" fill="currentColor"/>
</svg>
