<svg width="1em" height="1em" viewBox="0 0 58 58" fill="none" xmlns="http://www.w3.org/2000/svg">
<path d="M45.7407 12.3839C43.5725 10.1939 40.9936 8.45308 38.1517 7.26112C35.3098 6.06915 32.2607 5.44945 29.179 5.4375H29C22.7508 5.4375 16.7576 7.91997 12.3388 12.3388C7.91997 16.7576 5.4375 22.7508 5.4375 29V41.6875C5.4375 43.1296 6.01038 44.5127 7.03011 45.5324C8.04984 46.5521 9.43289 47.125 10.875 47.125H14.5C15.9421 47.125 17.3252 46.5521 18.3449 45.5324C19.3646 44.5127 19.9375 43.1296 19.9375 41.6875V32.625C19.9375 31.1829 19.3646 29.7998 18.3449 28.7801C17.3252 27.7604 15.9421 27.1875 14.5 27.1875H9.14406C9.49361 23.4083 10.9131 19.807 13.2363 16.8057C15.5594 13.8045 18.6899 11.5276 22.2609 10.2419C25.8318 8.95624 29.6953 8.71508 33.3984 9.54668C37.1015 10.3783 40.4909 12.2482 43.1692 14.9373C46.4428 18.2276 48.4564 22.5635 48.8582 27.1875H43.5C42.0579 27.1875 40.6748 27.7604 39.6551 28.7801C38.6354 29.7998 38.0625 31.1829 38.0625 32.625V41.6875C38.0625 43.1296 38.6354 44.5127 39.6551 45.5324C40.6748 46.5521 42.0579 47.125 43.5 47.125H48.9375C48.9375 48.5671 48.3646 49.9502 47.3449 50.9699C46.3252 51.9896 44.9421 52.5625 43.5 52.5625H30.8125C30.3318 52.5625 29.8708 52.7535 29.5309 53.0934C29.191 53.4333 29 53.8943 29 54.375C29 54.8557 29.191 55.3167 29.5309 55.6566C29.8708 55.9965 30.3318 56.1875 30.8125 56.1875H43.5C45.9035 56.1875 48.2086 55.2327 49.9082 53.5332C51.6077 51.8336 52.5625 49.5285 52.5625 47.125V29C52.5743 25.9178 51.9778 22.8635 50.8072 20.0122C49.6366 17.161 47.9149 14.5687 45.7407 12.3839ZM14.5 30.8125C14.9807 30.8125 15.4417 31.0035 15.7816 31.3434C16.1215 31.6833 16.3125 32.1443 16.3125 32.625V41.6875C16.3125 42.1682 16.1215 42.6292 15.7816 42.9691C15.4417 43.309 14.9807 43.5 14.5 43.5H10.875C10.3943 43.5 9.93328 43.309 9.59337 42.9691C9.25346 42.6292 9.0625 42.1682 9.0625 41.6875V30.8125H14.5ZM43.5 43.5C43.0193 43.5 42.5583 43.309 42.2184 42.9691C41.8785 42.6292 41.6875 42.1682 41.6875 41.6875V32.625C41.6875 32.1443 41.8785 31.6833 42.2184 31.3434C42.5583 31.0035 43.0193 30.8125 43.5 30.8125H48.9375V43.5H43.5Z" fill="currentColor"/>
</svg>
