<svg width="1em" height="1em" viewBox="0 0 25 24" fill="none" xmlns="http://www.w3.org/2000/svg">
<path d="M12.0156 21.6501C11.7056 21.6501 11.4056 21.6101 11.1556 21.5201C7.33563 20.2101 1.26562 15.5601 1.26562 8.6901C1.26562 5.1901 4.09562 2.3501 7.57562 2.3501C9.26562 2.3501 10.8456 3.0101 12.0156 4.1901C13.1856 3.0101 14.7656 2.3501 16.4556 2.3501C19.9356 2.3501 22.7656 5.2001 22.7656 8.6901C22.7656 15.5701 16.6956 20.2101 12.8756 21.5201C12.6256 21.6101 12.3256 21.6501 12.0156 21.6501ZM7.57562 3.8501C4.92562 3.8501 2.76562 6.0201 2.76562 8.6901C2.76562 15.5201 9.33562 19.3201 11.6456 20.1101C11.8256 20.1701 12.2156 20.1701 12.3956 20.1101C14.6956 19.3201 21.2756 15.5301 21.2756 8.6901C21.2756 6.0201 19.1156 3.8501 16.4656 3.8501C14.9456 3.8501 13.5356 4.5601 12.6256 5.7901C12.3456 6.1701 11.7056 6.1701 11.4256 5.7901C10.4956 4.5501 9.09562 3.8501 7.57562 3.8501Z" fill="currentColor"/>
</svg>
