<svg width="1em" height="1em" viewBox="0 0 38 38" fill="none" xmlns="http://www.w3.org/2000/svg">
<path d="M23.75 36.0212H14.25C5.65246 36.0212 1.97913 32.3478 1.97913 23.7503V14.2503C1.97913 5.65283 5.65246 1.97949 14.25 1.97949H23.75C32.3475 1.97949 36.0208 5.65283 36.0208 14.2503V23.7503C36.0208 32.3478 32.3475 36.0212 23.75 36.0212ZM14.25 4.35449C6.95079 4.35449 4.35413 6.95116 4.35413 14.2503V23.7503C4.35413 31.0495 6.95079 33.6462 14.25 33.6462H23.75C31.0491 33.6462 33.6458 31.0495 33.6458 23.7503V14.2503C33.6458 6.95116 31.0491 4.35449 23.75 4.35449H14.25Z" fill="currentColor"/>
<path d="M19 25.7288C15.295 25.7288 12.2709 22.7047 12.2709 18.9997C12.2709 15.2947 15.295 12.2705 19 12.2705C22.705 12.2705 25.7292 15.2947 25.7292 18.9997C25.7292 22.7047 22.705 25.7288 19 25.7288ZM19 14.6455C16.5934 14.6455 14.6459 16.593 14.6459 18.9997C14.6459 21.4063 16.5934 23.3538 19 23.3538C21.4067 23.3538 23.3542 21.4063 23.3542 18.9997C23.3542 16.593 21.4067 14.6455 19 14.6455Z" fill="currentColor"/>
<path d="M26.9167 11.8751C26.7109 11.8751 26.505 11.8276 26.315 11.7484C26.125 11.6693 25.9509 11.5584 25.7925 11.4159C25.65 11.2576 25.5234 11.0834 25.4442 10.8934C25.365 10.7034 25.3334 10.4976 25.3334 10.2918C25.3334 10.0859 25.365 9.88009 25.4442 9.69009C25.5392 9.48426 25.65 9.32593 25.7925 9.16759C25.8717 9.10426 25.9509 9.02509 26.03 8.97759C26.125 8.91426 26.22 8.86676 26.315 8.83509C26.41 8.78759 26.505 8.75593 26.6159 8.74009C27.1225 8.62926 27.6609 8.80343 28.0409 9.16759C28.1834 9.32593 28.2942 9.48426 28.3734 9.69009C28.4525 9.88009 28.5 10.0859 28.5 10.2918C28.5 10.4976 28.4525 10.7034 28.3734 10.8934C28.2942 11.0834 28.1834 11.2576 28.0409 11.4159C27.8825 11.5584 27.7084 11.6693 27.5184 11.7484C27.3284 11.8276 27.1225 11.8751 26.9167 11.8751Z" fill="currentColor"/>
</svg>
