<svg width="1em" height="1em" viewBox="0 0 58 58" fill="none" xmlns="http://www.w3.org/2000/svg">
<path d="M28.9999 40.4788C28.0333 40.4788 27.0666 40.4063 26.1483 40.2372C21.0249 39.488 16.3608 36.5397 13.4124 32.1655C11.3583 29.0722 10.2708 25.4713 10.2708 21.7497C10.2708 11.4305 18.6808 3.02051 28.9999 3.02051C39.3191 3.02051 47.7291 11.4305 47.7291 21.7497C47.7291 25.4713 46.6416 29.0722 44.5874 32.1655C41.6149 36.5638 36.9508 39.488 31.7791 40.2614C30.9333 40.4064 29.9666 40.4788 28.9999 40.4788ZM28.9999 6.64551C20.6624 6.64551 13.8958 13.4122 13.8958 21.7497C13.8958 24.7705 14.7658 27.6705 16.4091 30.1355C18.8016 33.6638 22.5474 36.0322 26.7041 36.6364C28.2508 36.9022 29.7733 36.9022 31.1991 36.6364C35.4283 36.0322 39.1741 33.6397 41.5666 30.1113C43.2099 27.6463 44.0799 24.7463 44.0799 21.7255C44.1041 13.4122 37.3374 6.64551 28.9999 6.64551Z" fill="currentColor"/>
<path d="M15.6354 54.5923C15.2971 54.5923 14.9829 54.5439 14.6446 54.4714C13.0738 54.1089 11.8654 52.9006 11.5029 51.3297L10.6571 47.7772C10.6088 47.5597 10.4396 47.3906 10.1979 47.3181L6.21043 46.3756C4.7121 46.0131 3.52793 44.9014 3.1171 43.4273C2.70627 41.9531 3.1171 40.3581 4.2046 39.2706L13.6296 29.8456C14.0163 29.4589 14.5479 29.2656 15.0796 29.3139C15.6113 29.3623 16.0946 29.6522 16.4088 30.1114C18.8013 33.6397 22.5471 36.0323 26.7279 36.6364C28.2746 36.9023 29.7971 36.9023 31.2229 36.6364C35.4521 36.0323 39.1979 33.6397 41.5904 30.1114C41.8804 29.6522 42.3879 29.3623 42.9196 29.3139C43.4513 29.2656 43.9829 29.4589 44.3696 29.8456L53.7946 39.2706C54.8821 40.3581 55.2929 41.9531 54.8821 43.4273C54.4713 44.9014 53.2629 46.0373 51.7888 46.3756L47.8013 47.3181C47.5838 47.3664 47.4146 47.5356 47.3421 47.7772L46.4963 51.3297C46.1338 52.9006 44.9254 54.1089 43.3546 54.4714C41.7838 54.8581 40.1646 54.3022 39.1496 53.0697L28.9996 41.3973L18.8496 53.0939C18.0279 54.0606 16.8679 54.5923 15.6354 54.5923ZM14.7171 33.9056L6.76627 41.8564C6.54877 42.0739 6.57293 42.3156 6.62127 42.4606C6.64543 42.5814 6.76627 42.8231 7.05627 42.8714L11.0438 43.8139C12.6146 44.1764 13.8229 45.3847 14.1854 46.9556L15.0313 50.5081C15.1038 50.8222 15.3454 50.9189 15.4904 50.9673C15.6354 50.9914 15.8771 51.0156 16.0946 50.774L25.3504 40.1164C21.2421 39.3189 17.4721 37.1198 14.7171 33.9056ZM32.6488 40.0923L41.9046 50.7256C42.1221 50.9914 42.3879 50.9914 42.5329 50.9431C42.6779 50.9189 42.8954 50.7981 42.9921 50.484L43.8379 46.9315C44.2004 45.3606 45.4088 44.1523 46.9796 43.7898L50.9671 42.8473C51.2571 42.7748 51.3779 42.5573 51.4021 42.4364C51.4504 42.3156 51.4746 42.0498 51.2571 41.8323L43.3063 33.8814C40.5271 37.0956 36.7813 39.2948 32.6488 40.0923Z" fill="currentColor"/>
<path d="M33.5679 31.151C32.9396 31.151 32.1904 30.9818 31.2963 30.4501L29.0004 29.0726L26.7046 30.4259C24.6021 31.6826 23.2246 30.9576 22.7171 30.5951C22.2096 30.2326 21.1221 29.1451 21.6779 26.7526L22.2579 24.2635L20.3246 22.4751C19.2613 21.4117 18.8746 20.1309 19.2371 18.971C19.5996 17.811 20.6629 16.9893 22.1613 16.7476L24.7471 16.3126L25.9796 13.6059C26.6804 12.2284 27.7679 11.4551 29.0004 11.4551C30.2329 11.4551 31.3446 12.2526 32.0213 13.6301L33.4471 16.4818L35.8396 16.7718C37.3138 17.0134 38.3771 17.8351 38.7638 18.9951C39.1263 20.1551 38.7396 21.4359 37.6763 22.4993L35.6704 24.5051L36.2988 26.7526C36.8546 29.1451 35.7671 30.2326 35.2596 30.5951C34.9938 30.8126 34.4138 31.151 33.5679 31.151ZM23.2246 20.276L24.8921 21.9434C25.6654 22.7167 26.0521 24.0218 25.8104 25.0851L25.3513 27.0184L27.2846 25.8826C28.3238 25.2784 29.7254 25.2784 30.7404 25.8826L32.6738 27.0184L32.2388 25.0851C31.9971 23.9976 32.3596 22.7167 33.1329 21.9434L34.8004 20.276L32.6979 19.9134C31.6829 19.7442 30.6679 18.9951 30.2088 18.0768L29.0004 15.7084L27.7921 18.1251C27.3571 19.0193 26.3421 19.7926 25.3271 19.9618L23.2246 20.276Z" fill="currentColor"/>
</svg>
