<svg width="1em" height="1em" viewBox="0 0 66 67" fill="none" xmlns="http://www.w3.org/2000/svg">
<path d="M41.91 63.0625H24.09C18.8925 63.0625 15.0975 60.89 13.64 57.15C12.1275 53.245 13.53 48.405 17.16 45.1325L29.92 33.5L17.16 21.8675C13.53 18.595 12.1275 13.755 13.64 9.85C15.0975 6.0825 18.8925 3.9375 24.09 3.9375H41.91C47.1075 3.9375 50.9025 6.11 52.36 9.85C53.8725 13.755 52.47 18.595 48.84 21.8675L36.08 33.5L48.8675 45.1325C52.47 48.405 53.9 53.245 52.3875 57.15C50.9025 60.89 47.1075 63.0625 41.91 63.0625ZM33 36.2775L19.9375 48.1575C17.6275 50.275 16.61 53.355 17.49 55.6375C18.315 57.755 20.6525 58.9375 24.09 58.9375H41.91C45.3475 58.9375 47.685 57.7825 48.51 55.6375C49.39 53.355 48.4 50.275 46.0625 48.1575L33 36.2775ZM24.09 8.0625C20.6525 8.0625 18.315 9.2175 17.49 11.3625C16.61 13.645 17.6 16.725 19.9375 18.8425L33 30.7225L46.0625 18.8425C48.3725 16.725 49.39 13.645 48.51 11.3625C47.685 9.245 45.3475 8.0625 41.91 8.0625H24.09Z" fill="currentColor"/>
</svg>
