<svg width="1em" height="1em" viewBox="0 0 58 58" fill="none" xmlns="http://www.w3.org/2000/svg">
<path d="M31.4167 35.646H4.83337C3.84254 35.646 3.02087 34.8244 3.02087 33.8335V18.4152C3.02087 17.6419 3.50418 16.9651 4.20502 16.6993C4.93002 16.4335 5.72756 16.651 6.21089 17.231C7.68506 18.9952 9.98089 19.986 12.2526 19.9135C14.1859 19.8652 15.9742 19.1402 17.3275 17.8594C17.9558 17.3277 18.4633 16.6994 18.85 15.9985C19.5992 14.7177 19.9617 13.316 19.9375 11.8902C19.8892 9.66683 18.9226 7.63684 17.2793 6.16267C16.6993 5.65517 16.5059 4.85763 16.7717 4.1568C17.0375 3.45597 17.7142 2.97266 18.4634 2.97266H36.25C37.2409 2.97266 38.0625 3.79432 38.0625 4.78516V28.9518C38.0625 32.6735 35.09 35.646 31.4167 35.646ZM6.64587 32.021H31.4167C33.0842 32.021 34.4375 30.6677 34.4375 29.0002V6.64604H22.2092C23.055 8.21687 23.5142 9.98107 23.5625 11.8177C23.6109 13.9202 23.0792 15.9985 22.0158 17.811C21.4358 18.8502 20.6384 19.8411 19.7684 20.5661C17.835 22.4027 15.1767 23.4902 12.3492 23.5627C10.3433 23.6352 8.36173 23.1277 6.67006 22.2094V32.021H6.64587Z" fill="currentColor"/>
<path d="M45.9167 50.1455H43.5C42.5092 50.1455 41.6875 49.3238 41.6875 48.333C41.6875 46.6655 40.3342 45.3122 38.6667 45.3122C36.9992 45.3122 35.6459 46.6655 35.6459 48.333C35.6459 49.3238 34.8242 50.1455 33.8334 50.1455H24.1667C23.1759 50.1455 22.3542 49.3238 22.3542 48.333C22.3542 46.6655 21.0009 45.3122 19.3334 45.3122C17.6659 45.3122 16.3125 46.6655 16.3125 48.333C16.3125 49.3238 15.4909 50.1455 14.5 50.1455H12.0834C7.08087 50.1455 3.02087 46.0855 3.02087 41.083V33.833C3.02087 32.8422 3.84254 32.0205 4.83337 32.0205H31.4167C33.0842 32.0205 34.4375 30.6672 34.4375 28.9997V12.083C34.4375 11.0922 35.2592 10.2705 36.25 10.2705H40.6968C43.0893 10.2705 45.2883 11.5514 46.4725 13.6297L50.605 20.8555C50.9192 21.4114 50.9192 22.1122 50.605 22.668C50.2909 23.2239 49.6867 23.5622 49.0342 23.5622H45.9167C45.5784 23.5622 45.3125 23.828 45.3125 24.1663V31.4163C45.3125 31.7547 45.5784 32.0205 45.9167 32.0205H53.1667C54.1575 32.0205 54.9792 32.8422 54.9792 33.833V41.083C54.9792 46.0855 50.9192 50.1455 45.9167 50.1455ZM45.0709 46.5205H45.9167C48.9134 46.5205 51.3542 44.0797 51.3542 41.083V35.6455H45.9167C43.5967 35.6455 41.6875 33.7363 41.6875 31.4163V24.1663C41.6875 21.8463 43.5725 19.9372 45.9167 19.9372L43.3309 15.418C42.7992 14.4755 41.7843 13.8955 40.6968 13.8955H38.0625V28.9997C38.0625 32.673 35.09 35.6455 31.4167 35.6455H6.64587V41.083C6.64587 44.0797 9.08671 46.5205 12.0834 46.5205H12.9291C13.7266 43.7413 16.2884 41.6872 19.3334 41.6872C22.3784 41.6872 24.9401 43.7413 25.7376 46.5205H32.2867C33.0842 43.7413 35.6459 41.6872 38.6909 41.6872C41.7359 41.6872 44.2734 43.7413 45.0709 46.5205Z" fill="currentColor"/>
<path d="M19.3333 54.9792C15.66 54.9792 12.6875 52.0067 12.6875 48.3333C12.6875 44.66 15.66 41.6875 19.3333 41.6875C23.0067 41.6875 25.9792 44.66 25.9792 48.3333C25.9792 52.0067 23.0067 54.9792 19.3333 54.9792ZM19.3333 45.3125C17.6658 45.3125 16.3125 46.6658 16.3125 48.3333C16.3125 50.0008 17.6658 51.3542 19.3333 51.3542C21.0008 51.3542 22.3542 50.0008 22.3542 48.3333C22.3542 46.6658 21.0008 45.3125 19.3333 45.3125Z" fill="currentColor"/>
<path d="M38.6667 54.9792C34.9934 54.9792 32.0209 52.0067 32.0209 48.3333C32.0209 44.66 34.9934 41.6875 38.6667 41.6875C42.34 41.6875 45.3125 44.66 45.3125 48.3333C45.3125 52.0067 42.34 54.9792 38.6667 54.9792ZM38.6667 45.3125C36.9992 45.3125 35.6459 46.6658 35.6459 48.3333C35.6459 50.0008 36.9992 51.3542 38.6667 51.3542C40.3342 51.3542 41.6875 50.0008 41.6875 48.3333C41.6875 46.6658 40.3342 45.3125 38.6667 45.3125Z" fill="currentColor"/>
<path d="M53.1667 35.6458H45.9167C43.5967 35.6458 41.6875 33.7367 41.6875 31.4167V24.1667C41.6875 21.8467 43.5967 19.9375 45.9167 19.9375H49.0341C49.6866 19.9375 50.2908 20.2758 50.605 20.8558L54.7376 28.1058C54.8826 28.3717 54.9792 28.6858 54.9792 29V33.8333C54.9792 34.8242 54.1575 35.6458 53.1667 35.6458ZM45.9167 23.5625C45.5783 23.5625 45.3125 23.8283 45.3125 24.1667V31.4167C45.3125 31.755 45.5783 32.0208 45.9167 32.0208H51.3542V29.4834L47.9708 23.5625H45.9167Z" fill="currentColor"/>
<path d="M12.0833 23.5628C5.75163 23.5628 0.604126 18.4153 0.604126 12.0837C0.604126 8.55533 2.17503 5.29277 4.90586 3.11777C6.93586 1.49861 9.49746 0.604492 12.0833 0.604492C18.415 0.604492 23.5625 5.75199 23.5625 12.0837C23.5625 15.3703 22.1366 18.512 19.6475 20.687C17.545 22.5478 14.8625 23.5628 12.0833 23.5628ZM12.0833 4.22949C10.295 4.22949 8.60322 4.83359 7.17739 5.96942C5.31656 7.44359 4.22913 9.69116 4.22913 12.0837C4.22913 16.4095 7.75746 19.9378 12.0833 19.9378C13.9683 19.9378 15.805 19.237 17.2792 17.9803C18.9709 16.482 19.9375 14.3553 19.9375 12.0837C19.9375 7.75783 16.4091 4.22949 12.0833 4.22949Z" fill="currentColor"/>
<path d="M9.66645 16.3125C9.06228 16.3125 8.45808 15.9984 8.11975 15.4425C7.61225 14.5725 7.87811 13.4608 8.74811 12.9533L10.899 11.6725V9.0625C10.899 8.07167 11.7206 7.25 12.7115 7.25C13.7023 7.25 14.524 8.07167 14.524 9.0625V12.6875C14.524 13.3158 14.1857 13.92 13.654 14.2342L10.6332 16.0467C10.2948 16.24 9.98062 16.3125 9.66645 16.3125Z" fill="currentColor"/>
</svg>
